<svg width="72" height="68" viewBox="0 0 72 68" fill="none" xmlns="http://www.w3.org/2000/svg">
<g filter="url(#filter0_d_47_134)">
<rect x="4.5" width="63" height="60" rx="3" fill="white" shape-rendering="crispEdges"/>
<path d="M61 30C61 16.1929 49.8071 5 36 5C22.1929 5 11 16.1929 11 30C11 42.4782 20.1421 52.8208 32.0938 54.6963V37.2266H25.7461V30H32.0938V24.4922C32.0938 18.2266 35.8261 14.7656 41.5366 14.7656C44.2718 14.7656 47.1328 15.2539 47.1328 15.2539V21.4062H43.9804C40.8748 21.4062 39.9062 23.3333 39.9062 25.3104V30H46.8398L45.7314 37.2266H39.9062V54.6963C51.8579 52.8208 61 42.4782 61 30Z" fill="#1877F2"/>
<path d="M45.7314 37.2266L46.8398 30H39.9063V25.3104C39.9063 23.3333 40.8748 21.4062 43.9804 21.4062H47.1328V15.2539C47.1328 15.2539 44.2718 14.7656 41.5366 14.7656C35.8261 14.7656 32.0938 18.2266 32.0938 24.4922V30H25.7461V37.2266H32.0938V54.6963C33.3666 54.896 34.6711 55 36 55C37.3289 55 38.6334 54.896 39.9063 54.6963V37.2266H45.7314Z" fill="white"/>
</g>
<defs>
<filter id="filter0_d_47_134" x="0.5" y="0" width="71" height="68" filterUnits="userSpaceOnUse" color-interpolation-filters="sRGB">
<feFlood flood-opacity="0" result="BackgroundImageFix"/>
<feColorMatrix in="SourceAlpha" type="matrix" values="0 0 0 0 0 0 0 0 0 0 0 0 0 0 0 0 0 0 127 0" result="hardAlpha"/>
<feOffset dy="4"/>
<feGaussianBlur stdDeviation="2"/>
<feComposite in2="hardAlpha" operator="out"/>
<feColorMatrix type="matrix" values="0 0 0 0 0 0 0 0 0 0 0 0 0 0 0 0 0 0 0.25 0"/>
<feBlend mode="normal" in2="BackgroundImageFix" result="effect1_dropShadow_47_134"/>
<feBlend mode="normal" in="SourceGraphic" in2="effect1_dropShadow_47_134" result="shape"/>
</filter>
</defs>
</svg>
