<svg width="24" height="24" viewBox="0 0 24 24" fill="none" xmlns="http://www.w3.org/2000/svg">
<g clip-path="url(#clip0_47_149)">
<path d="M12 11.9999C13.1867 11.9999 14.3467 11.648 15.3334 10.9887C16.3201 10.3294 17.0892 9.39237 17.5433 8.29601C17.9974 7.19966 18.1162 5.99326 17.8847 4.82937C17.6532 3.66548 17.0818 2.59639 16.2426 1.75727C15.4035 0.918155 14.3344 0.346711 13.1705 0.115199C12.0067 -0.116312 10.8003 0.00250816 9.7039 0.456634C8.60754 0.91076 7.67047 1.67979 7.01118 2.66649C6.35189 3.65318 6 4.81322 6 5.99991C6.00159 7.59072 6.63424 9.11592 7.75911 10.2408C8.88399 11.3657 10.4092 11.9983 12 11.9999ZM12 1.99991C12.7911 1.99991 13.5645 2.23451 14.2223 2.67403C14.8801 3.11356 15.3928 3.73827 15.6955 4.46918C15.9983 5.20008 16.0775 6.00435 15.9231 6.78027C15.7688 7.5562 15.3878 8.26893 14.8284 8.82834C14.269 9.38775 13.5563 9.76871 12.7804 9.92305C12.0044 10.0774 11.2002 9.99818 10.4693 9.69543C9.73836 9.39268 9.11365 8.87999 8.67412 8.22219C8.2346 7.56439 8 6.79104 8 5.99991C8 4.93905 8.42143 3.92163 9.17157 3.17148C9.92172 2.42134 10.9391 1.99991 12 1.99991Z" fill="#323232"/>
<path d="M12 14.0006C9.61386 14.0032 7.32622 14.9523 5.63896 16.6395C3.95171 18.3268 3.00265 20.6144 3 23.0006C3 23.2658 3.10536 23.5202 3.29289 23.7077C3.48043 23.8952 3.73478 24.0006 4 24.0006C4.26522 24.0006 4.51957 23.8952 4.70711 23.7077C4.89464 23.5202 5 23.2658 5 23.0006C5 21.1441 5.7375 19.3636 7.05025 18.0508C8.36301 16.7381 10.1435 16.0006 12 16.0006C13.8565 16.0006 15.637 16.7381 16.9497 18.0508C18.2625 19.3636 19 21.1441 19 23.0006C19 23.2658 19.1054 23.5202 19.2929 23.7077C19.4804 23.8952 19.7348 24.0006 20 24.0006C20.2652 24.0006 20.5196 23.8952 20.7071 23.7077C20.8946 23.5202 21 23.2658 21 23.0006C20.9974 20.6144 20.0483 18.3268 18.361 16.6395C16.6738 14.9523 14.3861 14.0032 12 14.0006Z" fill="#323232"/>
</g>
<defs>
<clipPath id="clip0_47_149">
<rect width="24" height="24" fill="white"/>
</clipPath>
</defs>
</svg>
