<svg width="34" height="34" viewBox="0 0 34 34" fill="none" xmlns="http://www.w3.org/2000/svg">
<circle cx="17" cy="17" r="17" fill="#FBBC05"/>
<g clip-path="url(#clip0_59_156)">
<path d="M13.8034 13.667C13.3206 13.6594 12.8555 13.4844 12.4875 13.172C11.7199 12.468 11.2549 11.494 11.19 10.4545C10.9875 8.37695 12.1209 7.15112 13.345 7.01445C13.64 6.98175 13.9385 7.00872 14.2228 7.09376C14.5071 7.1788 14.7715 7.32017 15 7.50945C15.341 7.81681 15.6178 8.18856 15.8146 8.6033C16.0114 9.01804 16.1243 9.4676 16.1467 9.92612C16.3334 11.8628 15.44 13.667 13.8034 13.667ZM13.53 8.66695C13.0492 8.72028 12.7625 9.40279 12.8492 10.2886C12.8733 10.8837 13.1188 11.4484 13.5375 11.872C13.6168 11.9499 13.7223 11.9956 13.8334 12.0003C14.1259 11.9678 14.5967 11.2161 14.4859 10.0836C14.2009 8.52862 13.5509 8.66695 13.53 8.67112V8.66695ZM9.63669 18.667C9.15397 18.6594 8.68886 18.4844 8.32085 18.172C7.55324 17.468 7.0882 16.494 7.02335 15.4545C6.82085 13.377 7.95419 12.1511 9.17835 12.0145C9.4733 11.9821 9.77173 12.0093 10.056 12.0943C10.3403 12.1793 10.6046 12.3205 10.8334 12.5095C11.1743 12.8168 11.4512 13.1886 11.648 13.6033C11.8448 14.018 11.9576 14.4676 11.98 14.9261C12.1667 16.8628 11.2309 18.667 9.63669 18.667ZM9.36335 13.667C8.88252 13.7203 8.59585 14.4028 8.68252 15.2886C8.70666 15.8837 8.95214 16.4484 9.37085 16.872C9.45096 16.9487 9.55591 16.9942 9.66669 17.0003C9.95919 16.9678 10.43 16.2161 10.3192 15.0836C10.0984 13.5603 9.38419 13.667 9.36335 13.6711V13.667ZM20.1967 13.667C18.7734 13.677 17.6684 11.862 17.8575 9.92362C17.8799 9.4651 17.9928 9.01554 18.1896 8.6008C18.3864 8.18606 18.6632 7.81431 19.0042 7.50695C19.2325 7.3188 19.4963 7.17829 19.7798 7.0937C20.0633 7.00911 20.3609 6.98217 20.655 7.01445C21.8792 7.15112 23.0125 8.37695 22.81 10.4545C22.7454 11.4943 22.2803 12.4686 21.5125 13.1728C21.1444 13.485 20.6793 13.6596 20.1967 13.667ZM19.5167 10.0836C19.4059 11.2128 19.8767 11.9645 20.1692 12.0003C20.2782 11.996 20.3821 11.9532 20.4625 11.8795C20.8812 11.4559 21.1267 10.8912 21.1509 10.2961C21.3259 8.11195 19.6667 8.25445 19.5167 10.0836ZM24.3634 18.667C22.8117 18.667 21.835 16.862 22.0242 14.9236C22.0466 14.4651 22.1594 14.0155 22.3562 13.6008C22.553 13.1861 22.8299 12.8143 23.1709 12.507C23.3989 12.3181 23.6625 12.177 23.946 12.092C24.2296 12.0069 24.5274 11.9797 24.8217 12.012C26.0459 12.1486 27.1792 13.3745 26.9767 15.452C26.9121 16.4918 26.447 17.4661 25.6792 18.1703C25.3114 18.4834 24.8463 18.6589 24.3634 18.667ZM23.6834 15.0836C23.5725 16.2128 24.0434 16.9645 24.3358 17.0003C24.4445 16.9945 24.548 16.9519 24.6292 16.8795C25.0479 16.4559 25.2934 15.8912 25.3175 15.2961C25.4009 14.4103 25.1175 13.7278 24.6367 13.6745C24.6159 13.667 23.7625 13.5928 23.6834 15.0836ZM20.3334 27.0003C19.621 27.0145 18.9176 26.8403 18.2942 26.4953C17.8952 26.2851 17.451 26.1752 17 26.1752C16.549 26.1752 16.1048 26.2851 15.7059 26.4953C13.195 27.9028 10.2684 26.3561 10.3334 22.8336C10.3334 18.9711 14.0892 15.3336 17 15.3336C19.9109 15.3336 23.6667 18.9703 23.6667 22.8336C23.6667 25.287 22.2959 27.0003 20.3334 27.0003ZM17 24.5003C17.7122 24.4863 18.4156 24.6602 19.0392 25.0045C20.9034 26.0195 22.0292 24.6436 22 22.8336C22 20.017 19.0659 17.0003 17 17.0003C14.9342 17.0003 12 20.017 12 22.8336C11.9734 24.6411 13.09 26.0195 14.9609 25.0045C15.5845 24.6602 16.2878 24.4863 17 24.5003Z" fill="white"/>
</g>
<defs>
<clipPath id="clip0_59_156">
<rect width="20" height="20" fill="white" transform="translate(7 7)"/>
</clipPath>
</defs>
</svg>
