<svg width="142" height="30" viewBox="0 0 142 30" fill="none" xmlns="http://www.w3.org/2000/svg">
<circle cx="23" cy="15" r="15" fill="#323232"/>
<path d="M16.2216 22.0588H19.3057V12.0745H16.2216V22.0588Z" fill="white"/>
<path d="M15.9412 8.88696C15.9412 9.87134 16.7356 10.6682 17.7636 10.6682C18.7449 10.6682 19.5393 9.87134 19.5393 8.88696C19.5393 7.90259 18.7449 7.05884 17.7636 7.05884C16.7356 7.05884 15.9412 7.90259 15.9412 8.88696Z" fill="white"/>
<path d="M27.8103 22.0588H30.9412V16.5745C30.9412 13.9026 30.3337 11.7932 27.2029 11.7932C25.7075 11.7932 24.6795 12.637 24.2589 13.4338H24.2122V12.0745H21.2683V22.0588H24.3524V17.137C24.3524 15.8245 24.586 14.5588 26.2216 14.5588C27.8103 14.5588 27.8103 16.0588 27.8103 17.1838V22.0588Z" fill="white"/>
<path d="M86 15.0913C86 6.75456 79.2863 0 71 0C62.7137 0 56 6.75456 56 15.0913C56 22.6369 61.4435 28.9047 68.6411 30V19.4726H64.8306V15.0913H68.6411V11.8053C68.6411 8.03245 70.879 5.90264 74.2661 5.90264C75.9597 5.90264 77.6532 6.2069 77.6532 6.2069V9.91886H75.7782C73.9032 9.91886 73.2984 11.0751 73.2984 12.2921V15.0913H77.4718L76.8065 19.4726H73.2984V30C80.496 28.9047 86 22.6369 86 15.0913Z" fill="#323232"/>
<circle cx="119" cy="15" r="15" fill="#323232"/>
<path d="M125.996 11.4915C126.685 10.9745 127.306 10.3541 127.788 9.63028C127.168 9.90602 126.444 10.1128 125.72 10.1818C126.479 9.73369 127.03 9.04435 127.306 8.18267C126.616 8.59628 125.824 8.90648 125.031 9.07881C124.342 8.35501 123.411 7.94141 122.377 7.94141C120.378 7.94141 118.758 9.56135 118.758 11.5604C118.758 11.8362 118.793 12.1119 118.861 12.3876C115.863 12.2153 113.174 10.7677 111.382 8.59628C111.072 9.11328 110.9 9.73369 110.9 10.423C110.9 11.6638 111.52 12.7668 112.52 13.4216C111.934 13.3872 111.348 13.2493 110.865 12.9736V13.008C110.865 14.7659 112.106 16.2135 113.76 16.5581C113.485 16.6271 113.14 16.696 112.83 16.696C112.588 16.696 112.382 16.6615 112.14 16.6271C112.588 18.0747 113.933 19.1087 115.518 19.1432C114.277 20.1082 112.726 20.6942 111.037 20.6942C110.727 20.6942 110.452 20.6597 110.176 20.6252C111.761 21.6592 113.657 22.2452 115.725 22.2452C122.377 22.2452 125.996 16.7649 125.996 11.974C125.996 11.8017 125.996 11.6638 125.996 11.4915Z" fill="white"/>
</svg>
